<svg xmlns="http://www.w3.org/2000/svg" data-encore-id="icon" role="img" aria-hidden="true" class="Svg-sc-ytk21e-0 euGWRm sc-dWYRsX eBirCj" data-sentry-element="Icon" data-sentry-component="CategoryIcon" data-sentry-source-file="ParentCategoryIcon.tsx" viewBox="0 0 16 16"><path d="M15 3H7V1.5h8V3Zm0 5.75H1v-1.5h14v1.5ZM9 14.5H1V13h8v1.5ZM3.334 1c.083 0 .162.028.223.08.06.05.099.121.106.197.027.264.147.682.42 1.044.267.353.673.648 1.29.71a.34.34 0 0 1 .21.1.291.291 0 0 1 .084.203c0 .075-.03.147-.085.203a.34.34 0 0 1-.21.1 1.773 1.773 0 0 0-1.289.71 2.2 2.2 0 0 0-.42 1.045.297.297 0 0 1-.107.196.347.347 0 0 1-.222.079.347.347 0 0 1-.222-.08.297.297 0 0 1-.106-.195 2.2 2.2 0 0 0-.42-1.045 1.773 1.773 0 0 0-1.29-.71.34.34 0 0 1-.211-.099A.291.291 0 0 1 1 3.334c0-.075.03-.148.085-.204a.34.34 0 0 1 .211-.099 1.774 1.774 0 0 0 1.29-.71c.272-.362.393-.78.42-1.044a.296.296 0 0 1 .106-.197c.06-.051.14-.08.222-.08Zm9.33 9.33c.083 0 .162.028.223.08.06.05.099.121.106.197.027.264.147.682.42 1.044.267.353.673.648 1.29.71a.34.34 0 0 1 .21.1.292.292 0 0 1 .084.203c0 .075-.03.147-.085.203a.341.341 0 0 1-.21.1 1.773 1.773 0 0 0-1.289.71 2.2 2.2 0 0 0-.42 1.045.296.296 0 0 1-.107.196.35.35 0 0 1-.222.079.347.347 0 0 1-.222-.08.297.297 0 0 1-.106-.195 2.199 2.199 0 0 0-.42-1.044 1.773 1.773 0 0 0-1.29-.71.341.341 0 0 1-.211-.1.292.292 0 0 1-.085-.204c0-.075.03-.148.085-.204a.34.34 0 0 1 .211-.099 1.774 1.774 0 0 0 1.29-.71c.272-.362.393-.78.42-1.044a.296.296 0 0 1 .106-.197.34.34 0 0 1 .222-.08Z"></path></svg>