<svg xmlns="http://www.w3.org/2000/svg" data-encore-id="icon" role="img" aria-hidden="true" class="Svg-sc-ytk21e-0 euGWRm sc-dWYRsX eBirCj" data-sentry-element="Icon" data-sentry-component="CategoryIcon" data-sentry-source-file="ParentCategoryIcon.tsx" viewBox="0 0 16 16"><path d="M4 4a4 4 0 1 1 8 0v3h1.25c.966 0 1.75.784 1.75 1.75v5.5A1.75 1.75 0 0 1 13.25 16H2.75A1.75 1.75 0 0 1 1 14.25v-5.5C1 7.784 1.784 7 2.75 7H4V4zm1.5 3h5V4a2.5 2.5 0 0 0-5 0v3zM2.75 8.5a.25.25 0 0 0-.25.25v5.5c0 .138.112.25.25.25h10.5a.25.25 0 0 0 .25-.25v-5.5a.25.25 0 0 0-.25-.25H2.75z"></path></svg>